<?xml version="1.0" standalone="no"?><!DOCTYPE svg PUBLIC "-//W3C//DTD SVG 1.1//EN" "http://www.w3.org/Graphics/SVG/1.1/DTD/svg11.dtd"><svg t="1701510877327" class="icon" viewBox="0 0 1170 1024" version="1.1" xmlns="http://www.w3.org/2000/svg" p-id="6460" xmlns:xlink="http://www.w3.org/1999/xlink" width="228.515625" height="200"><path d="M925.907529 102.341486C897.294043 124.635429 35.466386 879.469714 35.466386 879.469714s-58.104686 38.912-25.570743 88.590629 56.144457 68.227657 83.675429 47.7184c55.237486-36.0448-12.843886-66.267429 59.1872-116.853029 60.064914-44.090514 78.818743-31.1296 110.299429-63.2832 31.480686-32.182857 51.170743-86.6304 85.664914-106.203428 34.523429-19.485257 69.632-65.770057 100.469028-40.872229 16.266971 14.511543 34.113829 35.781486 44.997486 49.678629 5.792914 7.3728 16.676571 8.426057 23.7568 2.194285l464.369372-401.554285S1172.252672 157.578971 1170.263186 0c-0.117029 0-215.771429 79.872-244.355657 102.341486zM78.766958 910.716343a15.1552 15.1552 0 0 1-15.213715-15.038172c0-8.309029 6.816914-15.038171 15.213715-15.038171 8.3968 0 15.213714 6.729143 15.213714 15.038171a14.979657 14.979657 0 0 1-15.213714 15.067429z m98.011428-86.103772a15.1552 15.1552 0 0 1-15.213714-15.038171c0-8.309029 6.787657-15.067429 15.213714-15.067429 8.367543 0 15.213714 6.729143 15.213715 15.067429a15.1552 15.1552 0 0 1-15.213715 15.038171z m98.216229-87.186285a15.1552 15.1552 0 0 1-15.213714-15.008915c0-8.309029 6.816914-15.038171 15.213714-15.038171 8.3968 0 15.213714 6.729143 15.213714 15.038171a15.125943 15.125943 0 0 1-15.213714 15.038172z" fill="#CF6AFF" p-id="6461"></path><path d="M809.317815 517.237029l-250.353372 218.580114c25.3952 24.1664 47.484343 41.515886 61.001143 44.529371-59.011657 59.860114-76.653714 68.520229-130.165028 18.256457-27.472457-28.233143-53.774629-56.612571-78.994286-84.553142a96.6656 96.6656 0 0 0-5.412571 3.510857c39.584914 45.202286 77.589943 87.595886 97.426285 108.192914 47.074743 48.713143 85.460114 6.9632 85.460115 6.9632s79.023543-79.813486 126.098285-126.303086c42.071771-47.9232 66.530743-32.299886 66.530743-32.299885 26.302171 4.739657 27.618743 57.373257 70.8608 86.279314 37.098057 13.370514 151.200914 157.023086 192.219429 202.693486 41.047771 45.699657 72.586971 34.523429 100.849371 12.4928 33.528686-32.299886 34.318629-62.112914 0-109.246172-170.656914-175.9232-274.519771-284.642743-335.520914-349.096228zM895.275301 717.677714a18.490514 18.490514 0 1 1 0-37.010285 18.490514 18.490514 0 1 1 0 37.010285z m182.623085 196.959086a18.519771 18.519771 0 1 1-0.058514-37.039543 18.519771 18.519771 0 0 1 0.058514 37.039543z m-802.816-347.282286c6.026971 7.080229 16.296229 19.017143 29.169372 33.9968 1.8432-1.696914 3.803429-3.423086 5.675885-4.973714-125.952-154.4192-208.398629-283.999086-230.487771-325.632C48.046958 211.880229 126.543872 192.424229 159.750729 174.957714c0 0-10.503314 26.770286 2.779429 53.423543 13.282743 26.799543 188.269714 268.112457 213.138285 299.476114 1.316571 1.579886 2.8672 3.6864 4.856686 6.173258 82.973257-73.259886 169.486629-149.679543 247.837257-218.7264-89.936457-111.2064-162.230857-219.253029-181.979428-252.342858-26.916571-45.056-61.381486-35.576686-79.930515-24.576 0 0-234.2912 136.572343-279.522742 161.499429-45.231543 24.956343-24.722286 59.889371-17.495772 77.472914 7.109486 17.2032 173.290057 252.196571 205.648457 290.026057zM399.366729 81.217829c14.043429 0 25.482971 11.410286 25.482972 25.453714a25.512229 25.512229 0 0 1-50.9952 0c0-14.043429 11.556571-25.453714 25.512228-25.453714z" fill="#CF6AFF" p-id="6462"></path></svg>