<?xml version="1.0" standalone="no"?><!DOCTYPE svg PUBLIC "-//W3C//DTD SVG 1.1//EN" "http://www.w3.org/Graphics/SVG/1.1/DTD/svg11.dtd"><svg t="1701510836701" class="icon" viewBox="0 0 1024 1024" version="1.1" xmlns="http://www.w3.org/2000/svg" p-id="6290" xmlns:xlink="http://www.w3.org/1999/xlink" width="200" height="200"><path d="M989.503812 130.009533c-0.767974-41.436485-9.574081-82.907103-29.985134-120.998633a17.10023 17.10023 0 0 0-27.118029-4.010533L749.025428 188.375587c-6.263258 6.246192-23.31229 19.131096-36.214259 19.131096-25.786874 0-79.476817 0-108.608647 29.148895l-144.788773 144.80584h-0.017067v0.017066l-48.245858 48.245859h-0.017066v0.017066l-72.394387 72.394386a17.049032 17.049032 0 1 0 24.131462 24.131463l12.065731-12.065731 12.065732 12.065731a17.0149 17.0149 0 0 0 24.131462 0 17.066098 17.066098 0 0 0 0-24.131463l-12.065731-12.065731 24.131462-24.131462 12.065731 12.065731a17.0149 17.0149 0 0 0 24.131462 0 17.049032 17.049032 0 0 0 0-24.131462l-12.065731-12.065731 24.131463-24.148529 12.082797 12.082798a17.066098 17.066098 0 0 0 24.131462-24.148529l-12.065731-12.065731 24.131462-24.131462 12.065731 12.065731a17.0149 17.0149 0 0 0 24.131463 0 17.049032 17.049032 0 0 0 0-24.131462l-12.065731-12.065731 24.131462-24.148529 12.065731 12.065731a16.980767 16.980767 0 0 0 12.065731 5.000367 17.049032 17.049032 0 0 0 12.065731-29.131829l-12.065731-12.065731 36.197194-36.197194c19.131096-19.148162 63.264025-19.148162 84.477184-19.148161 30.343522 0 57.359155-26.145262 60.345721-29.131829l166.172595-166.172594c10.376187 25.80394 15.342422 52.921969 16.40052 80.142395L459.396682 622.810173a17.049032 17.049032 0 1 0 24.131463 24.131462l469.829672-469.829672c-9.932469 73.469551-45.378754 141.921669-83.658011 180.217993L531.808135 695.221626a17.066098 17.066098 0 0 0 24.131463 24.131462l337.89167-337.89167c50.276724-50.29379 95.979734-147.536415 95.860271-245.922469a15.837339 15.837339 0 0 0-0.187727-5.529416M266.310852 502.135795a17.578081 17.578081 0 0 0-24.131462 0l-48.262925 48.279991a17.066098 17.066098 0 0 0 0 24.131462l60.328656 60.328656L49.110625 840.027466A50.891104 50.891104 0 0 0 34.109525 876.224659c0 13.68701 5.341689 26.537782 15.0011 36.197194l96.525849 96.542915a51.078831 51.078831 0 0 0 36.21426 14.984034 51.027632 51.027632 0 0 0 36.197193-14.984034l205.151562-205.134496 60.345722 60.328656a17.066098 17.066098 0 0 0 24.131462 0l48.262925-48.262925a17.049032 17.049032 0 0 0 0-24.131462L266.310852 502.135795zM245.575543 933.174228l-90.518583-150.847239 48.740776-48.740775 100.570514 140.795307-58.792707 58.792707z m-51.659078 51.659078a17.475684 17.475684 0 0 1-24.148528 0L73.242088 888.29039A16.895437 16.895437 0 0 1 68.241721 876.224659c0-4.556648 1.774874-8.840239 5.000367-12.065731l56.949568-56.949568 90.518583 150.847238-26.793774 26.776708z m301.694477-156.871571l-60.345722-60.345722a17.066098 17.066098 0 0 0-24.131462 0l-82.292724 82.309789-100.570514-140.795306 50.123129-50.12313 84.477184 84.477185a17.049032 17.049032 0 1 0 24.131463-24.131463l-156.888637-156.871571 24.131462-24.148528 265.497283 265.497283-24.131462 24.131463z" fill="#1296db" p-id="6291"></path></svg>